# xmcd CD database file
#
# Track frame offsets:
#        150
#        17194
#        32596
#        43602
#        63203
#        78398
#        92157
#        111069
#        119988
#
# Disc length: 2278 seconds
#
# Revision: 0
# Processed by: cddbd v1.5.2PL0 Copyright (c) Steve Scherf et al.
# Submitted via: CUERipper 2.1.5
#
DISCID=7208e409
DTITLE=Mark Lemhouse - Loud-Live-Luxurious Vol. II
DYEAR=2006
DGENRE=Blues
TTITLE0=Six Days On The Road
TTITLE1=Paper Sack
TTITLE2=Highway Patrol
TTITLE3=Jealous Moon
TTITLE4=Salem
TTITLE5=You Gotta Move
TTITLE6=No One Can Forgive Me
TTITLE7=Wallflower
TTITLE8=Folsom Prison Blues - Rock Island Line
EXTD=
EXTT0=
EXTT1=
EXTT2=
EXTT3=
EXTT4=
EXTT5=
EXTT6=
EXTT7=
EXTT8=
PLAYORDER=
